<?xml version="1.0" encoding="utf-8"?>
<!-- Generator: Adobe Illustrator 21.1.0, SVG Export Plug-In . SVG Version: 6.00 Build 0)  -->
<svg version="1.1" id="Layer_1" xmlns="http://www.w3.org/2000/svg" xmlns:xlink="http://www.w3.org/1999/xlink" x="0px" y="0px"
	 viewBox="0 0 2394.1 796" style="enable-background:new 0 0 2394.1 796;" xml:space="preserve">
<style type="text/css">
	.st0{fill:#FFFFFF;}
	.st1{clip-path:url(#SVGID_2_);}
	.st2{fill:url(#SVGID_3_);}
	.st3{clip-path:url(#SVGID_5_);}
	.st4{fill:url(#SVGID_6_);}
	.st5{clip-path:url(#SVGID_8_);}
	.st6{fill:url(#SVGID_9_);}
	.st7{clip-path:url(#SVGID_11_);}
	.st8{fill:url(#SVGID_12_);}
	.st9{clip-path:url(#SVGID_14_);}
	.st10{fill:url(#SVGID_15_);}
	.st11{clip-path:url(#SVGID_17_);}
	.st12{fill:url(#SVGID_18_);}
	.st13{clip-path:url(#SVGID_20_);}
	.st14{fill:url(#SVGID_21_);}
	.st15{clip-path:url(#SVGID_23_);}
	.st16{fill:url(#SVGID_24_);}
</style>
<title>Imperial_Hearing_logo_Purple</title>
<polygon class="st0" points="77.1,559.9 77.1,615.1 12.3,615.1 12.3,559.9 0,559.9 0,680.8 12.3,680.8 12.3,624.9 77.1,624.9 
	77.1,680.8 89.4,680.8 89.4,559.9 "/>
<polygon class="st0" points="334.8,559.9 334.8,569.9 285.6,569.9 285.6,615.1 329.6,615.1 329.6,624.9 285.6,624.9 285.6,671 
	334.8,671 334.8,680.8 273.3,680.8 273.3,559.9 "/>
<path class="st0" d="M538.7,642.8h49.2l-24.5-67.6L538.7,642.8z M601.7,680.8l-10.2-28.2h-56.4l-10.3,28.2h-12.3L557,559.9h12.6
	L614,680.8L601.7,680.8z"/>
<path class="st0" d="M806.4,569.9v50.3h24.7c19.3,0,28.9-8.4,28.9-25.1c0-16.8-9.6-25.1-28.9-25.1L806.4,569.9z M806.4,630.2v50.6
	h-12.3V559.9h37c13.6,0,23.8,3.2,30.9,9.7c7,6.5,10.5,14.7,10.5,24.6s-2.8,18-8.3,24.1c-5.5,6.1-13.6,9.9-24.5,11.3l34.4,51.2h-15.9
	l-32.8-50.6H806.4z"/>
<rect x="1057.5" y="559.9" class="st0" width="12.3" height="120.9"/>
<polygon class="st0" points="1333.8,559.9 1346.1,559.9 1346.1,680.8 1333.8,680.8 1266,579.5 1266,680.8 1253.7,680.8 
	1253.7,559.9 1266,559.9 1333.8,661.2 "/>
<path class="st0" d="M1541.7,664.5c-11.8-11.6-17.8-26.3-17.8-44.1c0-17.9,5.9-32.6,17.8-44.3c11.9-11.6,26.5-17.4,43.7-17.4
	c12.4,0,23.4,2.8,33,8.4c9.7,5.7,17.3,14.3,21.8,24.5h-14.9c-3.6-7-9.2-12.8-16.1-16.5c-7.3-3.9-15.5-5.9-23.8-5.8
	c-14.1,0-25.8,4.7-35,14c-9.3,9.3-13.9,21.7-13.9,37c0,15.3,4.6,27.6,13.9,37c9.2,9.3,20.8,14,34.8,14c13.9,0,25.2-4.1,33.9-12.3
	c8.6-8.2,13.6-19.4,14.9-33.5h-54.3v-9.8h67.1v9.8c-1.6,16.8-8.2,30.4-19.7,40.7c-11.4,10.3-25.6,15.5-42.4,15.5
	C1567.9,681.9,1553.6,676.1,1541.7,664.5"/>
<rect x="4.1" y="131.2" class="st0" width="41.9" height="315.9"/>
<g>
	<path class="st0" d="M134.2,196.8v40.6c17.2-29.8,44.7-44.7,82.5-44.7c19.4,0,36.9,4.6,52.6,13.9c15.7,9.3,27.5,22.7,35.5,40.4
		c8.7-16.4,21.7-30.2,37.6-39.9c15.9-9.6,33.9-14.4,54.2-14.4c28.6,0,52.2,9.2,71,27.6c18.8,18.4,28.2,44.6,28.1,78.6v148.1h-41.5
		V305.8c0-25.3-6.2-44.4-18.7-57.5c-12.4-13.1-29.4-19.6-50.9-19.6c-21.6,0-38.5,6.5-51,19.6c-12.5,13.1-18.7,32.2-18.7,57.5v141.3
		h-41.5V305.8c0-25.3-6.1-44.4-18.4-57.5c-12.3-13.1-29.3-19.6-51-19.6c-21.7,0-38.7,6.5-51.2,19.6c-12.5,13.1-18.7,32.2-18.7,57.5
		v141.3h-42V196.8H134.2z"/>
	<path class="st0" d="M675.1,192.7c34.7,0,63.6,11.8,86.5,35.3c22.9,23.5,34.4,54.4,34.4,92.5c0,38.1-11.5,69.4-34.6,93.9
		c-23,24.5-51.8,36.7-86.2,36.7c-21.5,0-40.3-5.1-56.5-15.3c-15.7-9.7-28.5-23.5-37.1-39.9v125.5h-42V196.8h42V247
		c8.6-16.2,21.5-29.7,37.1-39.2C634.8,197.7,653.6,192.7,675.1,192.7 M667,415.6c23.5,0,43.7-8.7,60.4-26.2
		c16.7-17.5,25.1-40.5,25.1-68.8c0-28.4-8.4-50.9-25.1-67.3c-16.8-16.4-36.9-24.6-60.4-24.6c-23.5,0-43.6,8.5-60.4,25.5
		c-16.7,17-25.1,39.6-25.1,67.7c0,28.1,8.4,50.8,25.1,67.9C623.4,407,643.5,415.6,667,415.6"/>
	<path class="st0" d="M931.5,451.2c-36.3,0-65.8-11.8-88.5-35.5c-22.8-23.7-34.2-55-34.1-93.9c0-38.9,11.5-70.1,34.6-93.7
		c23.1-23.5,53-35.3,89.7-35.3c36.7,0,66.2,11.2,88.6,33.5c22.3,22.3,33.4,50.8,33.4,85.5c0,8.2-0.6,16.5-1.8,24.6H851.8
		c1.2,24.9,9.1,44.6,23.7,59c14.6,14.4,33.3,21.7,56.1,21.7c17.2,0,31.7-3.8,43.6-11.4c11.5-7.2,20.6-17.7,26.1-30.1h45.2
		c-8,21.9-21.7,40-41.3,54.3C985.6,444.1,961.1,451.2,931.5,451.2 M988.3,248.5c-15.1-14.4-33.7-21.7-56-21.6
		c-22.3,0-40.8,7.1-55.6,21.2c-14.8,14.1-22.9,33.5-24.5,58.1h159.1C1011,282.2,1003.3,263,988.3,248.5"/>
	<path class="st0" d="M1126.1,196.8v42.4c15.1-31,40.7-46.5,77-46.5V236h-11.1c-21.5,0-37.9,5.5-49.1,16.6
		c-11.3,11.1-16.9,30.3-16.9,57.7v136.7h-42V196.8H1126.1z"/>
	<path class="st0" d="M1266.5,142.6c-3.8,3.8-9,5.9-14.4,5.8c-5.3,0.1-10.5-2-14.2-5.8c-3.8-3.8-5.8-8.9-5.7-14.2
		c-0.1-5.3,2-10.5,5.9-14.2c7.9-7.7,20.5-7.7,28.4,0C1274.3,122.1,1274.3,134.8,1266.5,142.6 M1230.8,196.8h42v250.3h-42V196.8z"/>
	<path class="st0" d="M1336.9,414.5c-23.1-24.4-34.6-55.7-34.6-93.9c0-38.1,11.4-69,34.3-92.5c22.9-23.5,51.7-35.3,86.5-35.3
		c21.5,0,40.3,5,56.5,15c15.6,9.5,28.3,23,36.7,39.2v-50.2h42.4v250.3h-42.4v-51c-8.3,16.4-21,30.2-36.7,39.9
		c-16.1,10.2-35,15.3-56.5,15.3C1388.7,451.2,1360,439,1336.9,414.5 M1491.1,390.1c16.8-17,25.2-39.7,25.2-67.9
		c0-28.3-8.4-50.9-25.2-68c-16.8-17-36.9-25.5-60.4-25.5c-23.5,0-43.7,8.2-60.4,24.6c-16.8,16.4-25.1,38.7-25.1,67
		c0,28.3,8.4,51.2,25.3,68.8c16.9,17.6,37,26.4,60.4,26.4C1454.3,415.6,1474.4,407.1,1491.1,390.1"/>
</g>
<rect x="1604.8" y="109.7" class="st0" width="42" height="337.3"/>
<g>
	<defs>
		<path id="SVGID_1_" d="M1806.7,17.5c0,3.6,2.9,6.5,6.6,6.5c0,0,0,0,0,0c206.9,0,375.1,168.3,375.1,375.2
			c0,206.8-168.2,375.1-375.1,375.1c-3.6,0-6.6,2.9-6.6,6.6c0,3.6,2.9,6.6,6.6,6.6l0,0c214.1,0,388.2-174.2,388.2-388.2
			c0-214.1-174.2-388.3-388.2-388.3C1809.7,10.9,1806.7,13.8,1806.7,17.5C1806.7,17.5,1806.7,17.5,1806.7,17.5"/>
	</defs>
	<clipPath id="SVGID_2_">
		<use xlink:href="#SVGID_1_"  style="overflow:visible;"/>
	</clipPath>
	<g class="st1">
		
			<linearGradient id="SVGID_3_" gradientUnits="userSpaceOnUse" x1="-2352.7393" y1="-784.787" x2="-2323.2686" y2="-784.787" gradientTransform="matrix(0 26.3477 -26.3477 0 -18673.1914 62000.0781)">
			<stop  offset="0" style="stop-color:#F49800"/>
			<stop  offset="1" style="stop-color:#E60581"/>
		</linearGradient>
		<rect x="1806.7" y="10.9" class="st2" width="394.8" height="776.5"/>
	</g>
</g>
<g>
	<defs>
		<path id="SVGID_4_" d="M1806.7,116.5c0,3.6,2.9,6.6,6.6,6.6c0,0,0,0,0,0c152.2,0,276,123.8,276,276s-123.8,276-276,276
			c-3.6,0-6.6,2.9-6.6,6.5c0,3.6,2.9,6.6,6.5,6.6c0,0,0,0,0,0c159.4,0,289.2-129.7,289.2-289.2c0-159.5-129.7-289.2-289.2-289.2
			C1809.7,110,1806.7,112.9,1806.7,116.5"/>
	</defs>
	<clipPath id="SVGID_5_">
		<use xlink:href="#SVGID_4_"  style="overflow:visible;"/>
	</clipPath>
	<g class="st3">
		
			<linearGradient id="SVGID_6_" gradientUnits="userSpaceOnUse" x1="-2365.8418" y1="-837.4315" x2="-2336.3708" y2="-837.4315" gradientTransform="matrix(0 19.6246 -19.6246 0 -14479.7041 46538.7305)">
			<stop  offset="0" style="stop-color:#F49800"/>
			<stop  offset="1" style="stop-color:#E60581"/>
		</linearGradient>
		<rect x="1806.7" y="110" class="st4" width="295.7" height="578.4"/>
	</g>
</g>
<g>
	<defs>
		<path id="SVGID_7_" d="M1806.7,215.6c0,3.6,3,6.5,6.6,6.5c97.6,0,177,79.4,177,177c0,97.6-79.4,176.9-177,176.9
			c-3.6,0-6.6,2.9-6.6,6.5c0,3.6,2.9,6.6,6.5,6.6c0,0,0,0,0,0c104.8,0,190.1-85.3,190.1-190.1c0-104.8-85.3-190.1-190.1-190.1
			C1809.7,209.1,1806.7,212,1806.7,215.6C1806.7,215.6,1806.7,215.6,1806.7,215.6"/>
	</defs>
	<clipPath id="SVGID_8_">
		<use xlink:href="#SVGID_7_"  style="overflow:visible;"/>
	</clipPath>
	<g class="st5">
		
			<linearGradient id="SVGID_9_" gradientUnits="userSpaceOnUse" x1="-2392.6045" y1="-944.9647" x2="-2363.1357" y2="-944.9647" gradientTransform="matrix(0 12.9007 -12.9007 0 -10285.6592 31075.3359)">
			<stop  offset="0" style="stop-color:#F49800"/>
			<stop  offset="1" style="stop-color:#E60581"/>
		</linearGradient>
		<rect x="1806.7" y="209.1" class="st6" width="196.7" height="380.2"/>
	</g>
</g>
<g>
	<defs>
		<path id="SVGID_10_" d="M1806.7,314.7c0,3.6,2.9,6.6,6.5,6.6c0,0,0,0,0,0c43,0,77.9,34.9,77.9,77.9c0,43-34.9,77.9-77.9,77.9
			c-3.6,0-6.6,2.9-6.6,6.5c0,3.6,2.9,6.6,6.5,6.6c0,0,0,0,0,0c50.3,0,91-40.8,91-91.1c0-50.2-40.7-90.9-91-91
			C1809.7,308.1,1806.7,311,1806.7,314.7"/>
	</defs>
	<clipPath id="SVGID_11_">
		<use xlink:href="#SVGID_10_"  style="overflow:visible;"/>
	</clipPath>
	<g class="st7">
		
			<linearGradient id="SVGID_12_" gradientUnits="userSpaceOnUse" x1="-2477.5986" y1="-1286.4718" x2="-2448.1284" y2="-1286.4718" gradientTransform="matrix(0 6.1781 -6.1781 0 -6092.3955 15614.8398)">
			<stop  offset="0" style="stop-color:#F49800"/>
			<stop  offset="1" style="stop-color:#E60581"/>
		</linearGradient>
		<rect x="1806.7" y="308.1" class="st8" width="97.6" height="182.1"/>
	</g>
</g>
<g>
	<defs>
		<path id="SVGID_13_" d="M1990.2,399.2c0,214,174.2,388.2,388.2,388.2c3.6,0,6.6-2.9,6.6-6.6c0-3.6-2.9-6.6-6.6-6.6
			c-206.8,0-375.1-168.3-375.1-375.1c0-206.9,168.3-375.2,375.1-375.2c3.6,0,6.6-2.9,6.6-6.5c0-3.6-2.9-6.6-6.5-6.6c0,0,0,0,0,0
			C2164.4,10.9,1990.2,185.1,1990.2,399.2"/>
	</defs>
	<clipPath id="SVGID_14_">
		<use xlink:href="#SVGID_13_"  style="overflow:visible;"/>
	</clipPath>
	<g class="st9">
		
			<linearGradient id="SVGID_15_" gradientUnits="userSpaceOnUse" x1="-2276.248" y1="-456.483" x2="-2246.7773" y2="-456.483" gradientTransform="matrix(0 -26.3477 26.3477 0 14214.9121 -59186.4219)">
			<stop  offset="0" style="stop-color:#82C179"/>
			<stop  offset="0.1866" style="stop-color:#82C179"/>
			<stop  offset="1" style="stop-color:#009FE3"/>
		</linearGradient>
		<rect x="1990.2" y="10.9" class="st10" width="394.8" height="776.5"/>
	</g>
</g>
<g>
	<defs>
		<path id="SVGID_16_" d="M2089.3,399.2c0,159.4,129.7,289.2,289.2,289.2c3.6,0,6.6-2.9,6.6-6.5c0-3.6-2.9-6.6-6.5-6.6c0,0,0,0,0,0
			c-152.2,0-276-123.8-276-276s123.8-276,276-276c3.6,0,6.6-2.9,6.6-6.6c0-3.6-2.9-6.6-6.6-6.6c0,0,0,0,0,0
			C2219.1,110,2089.3,239.7,2089.3,399.2"/>
	</defs>
	<clipPath id="SVGID_17_">
		<use xlink:href="#SVGID_16_"  style="overflow:visible;"/>
	</clipPath>
	<g class="st11">
		
			<linearGradient id="SVGID_18_" gradientUnits="userSpaceOnUse" x1="-2263.1477" y1="-396.6564" x2="-2233.6768" y2="-396.6564" gradientTransform="matrix(0 -19.6246 19.6246 0 10021.4238 -43725.0781)">
			<stop  offset="0" style="stop-color:#82C179"/>
			<stop  offset="0.1866" style="stop-color:#82C179"/>
			<stop  offset="1" style="stop-color:#009FE3"/>
		</linearGradient>
		<rect x="2089.3" y="110" class="st12" width="295.7" height="578.4"/>
	</g>
</g>
<g>
	<defs>
		<path id="SVGID_19_" d="M2188.4,399.2c0,104.8,85.3,190.1,190.1,190.1c3.6,0,6.6-2.9,6.6-6.5c0-3.6-2.9-6.6-6.5-6.6c0,0,0,0,0,0
			c-97.6,0-177-79.4-177-176.9c0-97.6,79.4-177,177-177c3.6,0,6.6-2.9,6.6-6.5c0-3.6-2.9-6.6-6.5-6.6c0,0,0,0,0,0
			C2273.7,209.1,2188.4,294.3,2188.4,399.2"/>
	</defs>
	<clipPath id="SVGID_20_">
		<use xlink:href="#SVGID_19_"  style="overflow:visible;"/>
	</clipPath>
	<g class="st13">
		
			<linearGradient id="SVGID_21_" gradientUnits="userSpaceOnUse" x1="-2236.3835" y1="-274.455" x2="-2206.9148" y2="-274.455" gradientTransform="matrix(0 -12.9007 12.9007 0 5827.3789 -28261.6836)">
			<stop  offset="0" style="stop-color:#82C179"/>
			<stop  offset="0.1866" style="stop-color:#82C179"/>
			<stop  offset="1" style="stop-color:#009FE3"/>
		</linearGradient>
		<rect x="2188.4" y="209.1" class="st14" width="196.7" height="380.2"/>
	</g>
</g>
<g>
	<defs>
		<path id="SVGID_22_" d="M2287.5,399.2c0.1,50.2,40.8,90.9,91,91c3.6,0,6.6-2.9,6.6-6.5c0-3.6-2.9-6.6-6.5-6.6c0,0,0,0,0,0
			c-43,0-77.9-34.9-77.9-77.9c0-43,34.9-77.9,77.9-77.9c3.6,0,6.6-2.9,6.6-6.6s-2.9-6.6-6.6-6.6
			C2328.2,308.2,2287.5,348.9,2287.5,399.2"/>
	</defs>
	<clipPath id="SVGID_23_">
		<use xlink:href="#SVGID_22_"  style="overflow:visible;"/>
	</clipPath>
	<g class="st15">
		
			<linearGradient id="SVGID_24_" gradientUnits="userSpaceOnUse" x1="-2151.3855" y1="113.6511" x2="-2121.9153" y2="113.6511" gradientTransform="matrix(0 -6.1781 6.1781 0 1634.1145 -12801.1875)">
			<stop  offset="0" style="stop-color:#82C179"/>
			<stop  offset="0.1866" style="stop-color:#82C179"/>
			<stop  offset="1" style="stop-color:#009FE3"/>
		</linearGradient>
		<rect x="2287.5" y="308.1" class="st16" width="97.6" height="182.1"/>
	</g>
</g>
</svg>
